<?xml version="1.0" standalone="no"?>
<!DOCTYPE svg PUBLIC "-//W3C//DTD SVG 20010904//EN"
 "http://www.w3.org/TR/2001/REC-SVG-20010904/DTD/svg10.dtd">
<svg version="1.0" xmlns="http://www.w3.org/2000/svg"
 width="626.000000pt" height="626.000000pt" viewBox="0 0 626.000000 626.000000"
 preserveAspectRatio="xMidYMid meet">

<g transform="translate(0.000000,626.000000) scale(0.100000,-0.100000)"
fill="#000000" stroke="none">
<path d="M2945 4234 c-11 -2 -51 -12 -90 -20 -38 -9 -98 -29 -132 -44 -34 -16
-77 -31 -95 -35 -207 -43 -432 -205 -538 -389 -23 -40 -38 -52 -81 -70 -80
-32 -88 -49 -105 -219 -16 -160 -33 -228 -69 -267 -55 -60 -85 -168 -85 -302
0 -191 48 -260 258 -373 28 -15 52 -31 52 -35 0 -3 -17 -12 -37 -19 -89 -33
-158 -140 -184 -285 l-11 -66 -103 0 c-107 0 -132 -9 -119 -44 5 -14 30 -16
196 -16 120 0 197 -4 210 -11 12 -6 43 -10 69 -9 27 1 61 1 77 0 120 -5 260
-1 290 9 49 16 1304 9 1476 -8 82 -8 129 -8 149 -1 19 6 44 6 73 0 33 -8 54
-6 86 5 32 11 90 15 224 15 149 0 184 3 194 15 10 12 10 18 0 30 -10 12 -36
15 -115 15 l-103 0 -11 66 c-26 147 -80 232 -178 280 -45 22 -75 29 -152 33
l-96 6 3 110 c1 61 -1 135 -6 165 -4 30 -4 71 1 91 l8 35 60 -4 c74 -6 104 12
120 70 9 33 8 55 -5 107 -22 90 -20 109 13 193 44 111 71 206 71 249 0 89 -74
215 -182 307 -56 48 -139 92 -174 92 -35 0 -108 56 -212 165 -58 60 -111 107
-127 111 -14 3 -47 3 -73 -1 -73 -11 -91 -9 -182 20 -71 23 -107 28 -215 31
-71 1 -139 1 -150 -2z m221 -55 c104 -14 190 -42 212 -69 l17 -21 59 27 c45
20 65 25 82 18 13 -5 79 -63 146 -129 121 -119 143 -134 224 -154 103 -27 249
-167 284 -275 19 -59 7 -139 -39 -255 -52 -131 -57 -164 -37 -234 20 -70 20
-111 0 -131 -21 -21 -50 -20 -104 5 -100 45 -168 147 -194 290 -26 148 -98
342 -213 575 -70 141 -119 208 -156 212 -39 5 -48 -25 -15 -52 57 -47 148
-220 243 -466 50 -131 70 -198 96 -325 17 -89 46 -143 116 -214 l63 -65 -11
-40 c-18 -72 -50 -150 -80 -200 -33 -53 -34 -80 -4 -84 15 -2 28 11 52 50 l32
53 1 -107 0 -107 -47 -21 c-104 -46 -173 -147 -173 -255 0 -34 7 -72 15 -89 8
-15 15 -30 15 -32 0 -2 -279 -4 -620 -4 -341 0 -620 2 -620 4 0 2 7 17 15 32
8 16 15 45 15 65 0 20 3 38 6 41 3 4 30 -5 60 -19 61 -28 88 -27 92 3 2 17 -6
24 -43 39 -76 29 -135 65 -149 94 -8 14 -28 40 -45 56 -29 29 -30 34 -31 115
0 105 -10 141 -67 255 -102 201 -209 598 -201 750 3 62 1 70 -16 73 -47 10
-57 -61 -31 -214 38 -216 112 -456 196 -635 59 -125 78 -200 65 -252 -6 -25
-6 -25 -53 -11 -25 8 -77 14 -114 14 -37 0 -71 5 -74 10 -3 6 -50 35 -103 67
-199 115 -227 155 -227 318 1 112 19 190 59 246 65 88 78 134 97 329 6 63 15
123 21 133 11 20 45 35 103 46 34 6 40 10 41 32 1 64 132 215 257 296 86 56
162 90 245 109 36 8 82 24 102 34 61 31 161 60 240 69 107 12 110 12 196 0z
m-857 -1755 c129 -38 216 -187 166 -284 -16 -32 -61 -60 -94 -60 -18 0 -19 3
-11 26 6 14 10 43 10 65 0 36 -2 40 -22 37 -18 -2 -24 -12 -30 -48 -11 -68
-65 -106 -120 -85 -12 5 -12 15 -5 53 14 65 3 104 -26 100 -19 -3 -22 -10 -24
-57 -4 -67 -22 -91 -73 -91 -43 0 -78 28 -87 71 -13 68 -58 61 -50 -8 l5 -44
-32 3 c-30 3 -31 5 -28 42 12 135 83 242 182 276 68 24 168 25 239 4z m1872 0
c104 -31 178 -140 191 -280 3 -37 2 -39 -28 -42 l-32 -3 5 44 c3 25 1 47 -5
51 -17 10 -42 -5 -42 -26 0 -27 -26 -74 -45 -82 -9 -3 -32 -6 -51 -6 -43 0
-67 34 -68 98 -1 41 -4 47 -23 50 -17 3 -24 -3 -29 -23 -6 -26 -1 -75 11 -106
4 -12 -1 -18 -21 -23 -64 -16 -101 13 -113 91 -5 29 -11 39 -29 41 -20 3 -22
-1 -22 -37 0 -22 4 -51 10 -65 9 -24 7 -26 -16 -26 -56 0 -104 58 -104 128 0
51 44 136 87 169 78 60 214 79 324 47z"/>
<path d="M3264 3663 c-42 -21 -64 -61 -64 -117 0 -36 6 -52 29 -78 27 -30 34
-33 89 -33 68 0 95 17 119 73 28 67 -17 151 -88 166 -42 8 -49 7 -85 -11z
m123 -39 c4 -11 -1 -22 -12 -31 -16 -11 -21 -11 -33 1 -8 8 -12 22 -9 30 8 21
46 21 54 0z"/>
<path d="M2383 3324 c-31 -7 -48 -31 -34 -47 8 -10 32 -13 90 -9 44 2 97 1
118 -3 l38 -7 -31 -16 c-50 -28 -70 -45 -97 -85 -27 -39 -26 -67 0 -67 8 0 36
22 62 49 30 31 63 55 96 66 95 35 99 55 18 93 -47 21 -75 26 -148 28 -49 1
-100 0 -112 -2z"/>
<path d="M3013 3265 c-118 -33 -207 -99 -244 -179 -26 -56 -24 -77 4 -39 22
33 44 45 34 19 -17 -43 47 -142 121 -188 20 -12 66 -30 101 -38 63 -16 65 -17
79 -58 l14 -43 -59 -67 c-66 -76 -84 -93 -132 -124 -34 -21 -35 -21 -85 -4
-28 10 -72 36 -98 57 -50 42 -75 49 -85 22 -5 -12 7 -29 40 -58 59 -55 109
-78 177 -83 49 -4 60 -9 100 -48 88 -85 192 -108 310 -69 107 35 190 151 190
263 0 28 8 42 44 73 25 23 52 59 65 90 26 59 39 153 23 163 -14 9 -42 -4 -42
-19 0 -42 -45 -152 -75 -182 -39 -39 -76 -42 -201 -18 -110 22 -121 28 -135
74 -12 39 -11 41 30 87 73 83 95 226 45 299 l-25 37 25 -6 c13 -3 32 -9 42
-13 37 -14 0 20 -42 38 -59 27 -156 33 -221 14z m326 -597 l83 -12 -5 -47
c-12 -99 -78 -172 -180 -200 -71 -19 -169 13 -223 73 l-22 23 78 84 78 84 41
-79 c43 -85 48 -83 26 11 -21 84 -20 88 13 82 15 -4 65 -12 111 -19z"/>
<path d="M3503 2342 c-101 -99 -221 -140 -379 -129 -69 5 -86 3 -91 -9 -10
-27 17 -42 92 -49 91 -9 200 12 290 54 73 34 175 126 175 158 0 41 -28 33 -87
-25z"/>
</g>
</svg>
